<?xml version="1.0" encoding="UTF-8" standalone="no"?>
<!DOCTYPE svg PUBLIC "-//W3C//DTD SVG 1.1//EN" "http://www.w3.org/Graphics/SVG/1.1/DTD/svg11.dtd">
<svg width="100%" height="100%" viewBox="0 0 620 620" version="1.1" xmlns="http://www.w3.org/2000/svg" xmlns:xlink="http://www.w3.org/1999/xlink" xml:space="preserve" xmlns:serif="http://www.serif.com/" style="fill-rule:evenodd;clip-rule:evenodd;stroke-linecap:round;stroke-linejoin:round;stroke-miterlimit:1.5;">
    <g transform="matrix(1,0,0,1,-40,-40)">
        <circle cx="300" cy="350" r="250" style="fill:none;stroke:black;stroke-width:12.5px;"/>
    </g>
    <g transform="matrix(1,0,0,1.029332,-40,-45.866441)">
        <ellipse cx="300" cy="345.726" rx="150" ry="145.726" style="fill:none;stroke:black;stroke-width:12.32px;"/>
    </g>
    <g transform="matrix(1,0,0,1,10,60)">
        <circle cx="450" cy="441.421" r="50" style="stroke:black;stroke-width:4.17px;"/>
    </g>
    <g transform="matrix(1,0,0,1,10,60)">
        <path d="M300,250C300,222.404 277.596,200 250,200C222.404,200 200,222.404 200,250L200,391.451C141.764,370.84 100,315.259 100,250C100,167.213 167.213,100 250,100C288.403,100 323.454,114.463 350,138.234C376.546,114.463 411.597,100 450,100C532.787,100 600,167.213 600,250L600,391.421L500,391.421L500,250C500,222.404 477.596,200 450,200C422.404,200 400,222.404 400,250C400,294.385 380.681,334.292 350,361.766C335.571,374.687 318.628,384.858 300,391.451L300,250Z" style="stroke:black;stroke-width:4.17px;"/>
    </g>
</svg>
